<svg width="26" height="24" viewBox="0 0 26 24" fill="none" xmlns="http://www.w3.org/2000/svg">
<path d="M2.55556 4.51613C2.55556 2.02016 4.55608 0 7.02778 0C9.49948 0 11.5 2.02016 11.5 4.51613C11.5 7.0121 9.49948 9.03226 7.02778 9.03226C4.55608 9.03226 2.55556 7.0121 2.55556 4.51613ZM0 18.0645C0 14.1452 3.14653 10.9677 7.02778 10.9677C10.909 10.9677 14.0556 14.1452 14.0556 18.0645V18.3065C14.0556 19.2419 13.3049 20 12.3785 20H1.67708C0.750694 20 0 19.2419 0 18.3065V18.0645ZM17.25 1.93548C19.3663 1.93548 21.0833 3.66935 21.0833 5.80645C21.0833 7.94355 19.3663 9.67742 17.25 9.67742C15.1337 9.67742 13.4167 7.94355 13.4167 5.80645C13.4167 3.66935 15.1337 1.93548 17.25 1.93548ZM17.25 11.6129C20.4245 11.6129 23 14.2137 23 17.4194V18.3226C23 19.25 22.2573 20 21.3389 20H15.5569C15.8205 19.496 15.9722 18.9194 15.9722 18.3065V18.0645C15.9722 15.9879 15.2774 14.0766 14.1155 12.5524C15.0179 11.9597 16.096 11.6129 17.25 11.6129Z" fill="#E5E7EB"/>
<circle cx="20" cy="18" r="5" fill="#1E293B"/>
<path fill-rule="evenodd" clip-rule="evenodd" d="M16 19C16 16.2385 18.2385 14 21 14C23.7615 14 26 16.2385 26 19C26 21.7615 23.7615 24 21 24C18.2385 24 16 21.7615 16 19ZM21 15C19.9391 15 18.9217 15.4214 18.1716 16.1716C17.4214 16.9217 17 17.9391 17 19C17 20.0609 17.4214 21.0783 18.1716 21.8284C18.9217 22.5786 19.9391 23 21 23C22.0609 23 23.0783 22.5786 23.8284 21.8284C24.5786 21.0783 25 20.0609 25 19C25 17.9391 24.5786 16.9217 23.8284 16.1716C23.0783 15.4214 22.0609 15 21 15Z" fill="#E5E7EB"/>
<path fill-rule="evenodd" clip-rule="evenodd" d="M21.5 16.5C21.5 16.3674 21.4473 16.2402 21.3536 16.1464C21.2598 16.0527 21.1326 16 21 16C20.8674 16 20.7402 16.0527 20.6464 16.1464C20.5527 16.2402 20.5 16.3674 20.5 16.5V18.5H18.5C18.3674 18.5 18.2402 18.5527 18.1464 18.6464C18.0527 18.7402 18 18.8674 18 19C18 19.1326 18.0527 19.2598 18.1464 19.3536C18.2402 19.4473 18.3674 19.5 18.5 19.5H20.5V21.5C20.5 21.6326 20.5527 21.7598 20.6464 21.8536C20.7402 21.9473 20.8674 22 21 22C21.1326 22 21.2598 21.9473 21.3536 21.8536C21.4473 21.7598 21.5 21.6326 21.5 21.5V19.5H23.5C23.6326 19.5 23.7598 19.4473 23.8536 19.3536C23.9473 19.2598 24 19.1326 24 19C24 18.8674 23.9473 18.7402 23.8536 18.6464C23.7598 18.5527 23.6326 18.5 23.5 18.5H21.5V16.5Z" fill="#E5E7EB"/>
</svg>
