<svg width="42" height="42" viewBox="0 0 42 42" fill="none" xmlns="http://www.w3.org/2000/svg">
<g clip-path="url(#clip0_716_2)">
<path d="M21 0C9.40205 0 0 9.40205 0 21C0 32.5979 9.40205 42 21 42C32.5979 42 42 32.5979 42 21C42 9.40205 32.5979 0 21 0ZM21 4.56299C30.0779 4.56299 37.4345 11.9244 37.4345 21C37.4345 30.0756 30.0779 37.4345 21 37.4345C11.9221 37.4345 4.56554 30.0757 4.56554 21C4.56558 11.9244 11.9221 4.56299 21 4.56299ZM29.0467 11.0281L16.8754 23.202L12.9276 19.2543L9.05419 23.1251L13.0019 27.0729L16.901 30.9719L20.7719 27.0985L32.9458 14.9271L29.0467 11.0281Z" fill="#009705"/>
</g>
<defs>
<clipPath id="clip0_716_2">
<rect width="42" height="42" fill="white"/>
</clipPath>
</defs>
</svg>
