<svg width="38" height="34" viewBox="0 0 38 34" fill="none" xmlns="http://www.w3.org/2000/svg">
<path d="M3.33333 5.64516C3.33333 2.5252 5.94271 0 9.16667 0C12.3906 0 15 2.5252 15 5.64516C15 8.76512 12.3906 11.2903 9.16667 11.2903C5.94271 11.2903 3.33333 8.76512 3.33333 5.64516ZM0 22.5806C0 17.6815 4.10417 13.7097 9.16667 13.7097C14.2292 13.7097 18.3333 17.6815 18.3333 22.5806V22.8831C18.3333 24.0524 17.3542 25 16.1458 25H2.1875C0.979167 25 0 24.0524 0 22.8831V22.5806ZM22.5 2.41935C25.2604 2.41935 27.5 4.58669 27.5 7.25806C27.5 9.92944 25.2604 12.0968 22.5 12.0968C19.7396 12.0968 17.5 9.92944 17.5 7.25806C17.5 4.58669 19.7396 2.41935 22.5 2.41935ZM22.5 14.5161C26.6406 14.5161 30 17.7671 30 21.7742V22.9032C30 24.0625 29.0312 25 27.8333 25H20.2917C20.6354 24.37 20.8333 23.6492 20.8333 22.8831V22.5806C20.8333 19.9849 19.9271 17.5958 18.4115 15.6905C19.5885 14.9496 20.9948 14.5161 22.5 14.5161Z" fill="#E5E7EB"/>
<path d="M18.889 26.1534L18.889 19.4986L27.3065 19.4986L27.3065 14.1304L35.5557 22.826L27.3065 31.5217L27.3065 26.1534L18.889 26.1534Z" fill="#1E293B"/>
<path d="M21.1112 28.3273L21.1112 21.6724L29.5287 21.6724L29.5287 16.3042L37.7778 24.9999L29.5287 33.6955L29.5287 28.3273L21.1112 28.3273Z" fill="#E5E7EB"/>
</svg>
