<svg width="22" height="22" viewBox="0 0 22 22" fill="none" xmlns="http://www.w3.org/2000/svg">
<path fill-rule="evenodd" clip-rule="evenodd" d="M18.3333 1.22222C18.3333 0.898069 18.2046 0.587192 17.9754 0.357981C17.7461 0.128769 17.4353 0 17.1111 0C16.787 0 16.4761 0.128769 16.2469 0.357981C16.0177 0.587192 15.8889 0.898069 15.8889 1.22222V2.44444H1.22222C0.898069 2.44444 0.587192 2.57321 0.357981 2.80243C0.128769 3.03164 0 3.34251 0 3.66667C0 3.99082 0.128769 4.3017 0.357981 4.53091C0.587192 4.76012 0.898069 4.88889 1.22222 4.88889H15.8889V6.11111C15.8889 6.43526 16.0177 6.74614 16.2469 6.97535C16.4761 7.20456 16.787 7.33333 17.1111 7.33333C17.4353 7.33333 17.7461 7.20456 17.9754 6.97535C18.2046 6.74614 18.3333 6.43526 18.3333 6.11111V4.88889H20.7778C21.1019 4.88889 21.4128 4.76012 21.642 4.53091C21.8712 4.3017 22 3.99082 22 3.66667C22 3.34251 21.8712 3.03164 21.642 2.80243C21.4128 2.57321 21.1019 2.44444 20.7778 2.44444H18.3333V1.22222ZM1.22222 9.77778C0.898069 9.77778 0.587192 9.90655 0.357981 10.1358C0.128769 10.365 0 10.6758 0 11C0 11.3242 0.128769 11.635 0.357981 11.8642C0.587192 12.0935 0.898069 12.2222 1.22222 12.2222H3.66667V13.4444C3.66667 13.7686 3.79544 14.0795 4.02465 14.3087C4.25386 14.5379 4.56474 14.6667 4.88889 14.6667C5.21304 14.6667 5.52392 14.5379 5.75313 14.3087C5.98234 14.0795 6.11111 13.7686 6.11111 13.4444V12.2222H20.7778C21.1019 12.2222 21.4128 12.0935 21.642 11.8642C21.8712 11.635 22 11.3242 22 11C22 10.6758 21.8712 10.365 21.642 10.1358C21.4128 9.90655 21.1019 9.77778 20.7778 9.77778H6.11111V8.55556C6.11111 8.2314 5.98234 7.92053 5.75313 7.69131C5.52392 7.4621 5.21304 7.33333 4.88889 7.33333C4.56474 7.33333 4.25386 7.4621 4.02465 7.69131C3.79544 7.92053 3.66667 8.2314 3.66667 8.55556V9.77778H1.22222ZM0 18.3333C0 18.0092 0.128769 17.6983 0.357981 17.4691C0.587192 17.2399 0.898069 17.1111 1.22222 17.1111H15.8889V15.8889C15.8889 15.5647 16.0177 15.2539 16.2469 15.0246C16.4761 14.7954 16.787 14.6667 17.1111 14.6667C17.4353 14.6667 17.7461 14.7954 17.9754 15.0246C18.2046 15.2539 18.3333 15.5647 18.3333 15.8889V17.1111H20.7778C21.1019 17.1111 21.4128 17.2399 21.642 17.4691C21.8712 17.6983 22 18.0092 22 18.3333C22 18.6575 21.8712 18.9684 21.642 19.1976C21.4128 19.4268 21.1019 19.5556 20.7778 19.5556H18.3333V20.7778C18.3333 21.1019 18.2046 21.4128 17.9754 21.642C17.7461 21.8712 17.4353 22 17.1111 22C16.787 22 16.4761 21.8712 16.2469 21.642C16.0177 21.4128 15.8889 21.1019 15.8889 20.7778V19.5556H1.22222C0.898069 19.5556 0.587192 19.4268 0.357981 19.1976C0.128769 18.9684 0 18.6575 0 18.3333Z" fill="#E5E7EB"/>
</svg>
