<svg width="148" height="28" viewBox="0 0 148 28" fill="none" xmlns="http://www.w3.org/2000/svg">
<g clip-path="url(#clip0_585_22)">
<path d="M77.9341 27.5623V0H83.7769V27.5623H77.9341ZM97.9226 27.942C96.2154 27.942 94.6884 27.5254 93.3417 26.687C92.0162 25.8539 90.9611 24.7149 90.1711 23.2701C89.4076 21.8252 89.0259 20.18 89.0259 18.3345C89.0259 16.4889 89.4076 14.8437 90.1711 13.3989C90.9611 11.954 92.0162 10.8151 93.3417 9.98192C94.6884 9.14878 96.2154 8.72693 97.9226 8.72693C99.1686 8.72693 100.287 8.96949 101.284 9.44934C102.302 9.92919 103.129 10.5989 103.765 11.4637C104.402 12.2968 104.757 13.2618 104.836 14.348V22.3209C104.762 23.4072 104.402 24.3827 103.765 25.2422C103.156 26.0753 102.339 26.7345 101.321 27.2143C100.303 27.6942 99.1686 27.9367 97.9226 27.9367V27.942ZM99.1103 22.7058C100.356 22.7058 101.364 22.2998 102.127 21.493C102.891 20.6599 103.272 19.6053 103.272 18.3397C103.272 17.4802 103.092 16.7209 102.737 16.0618C102.408 15.4026 101.92 14.8964 101.284 14.5431C100.674 14.1635 99.9586 13.9736 99.1474 13.9736C98.3362 13.9736 97.6098 14.1635 96.9736 14.5431C96.3638 14.8964 95.8654 15.4026 95.4837 16.0618C95.1285 16.7209 94.9482 17.4802 94.9482 18.3397C94.9482 19.1992 95.1285 19.9217 95.4837 20.5808C95.8389 21.2399 96.3373 21.7567 96.9736 22.1363C97.6098 22.516 98.3203 22.7058 99.1103 22.7058ZM103.039 27.5623V22.5898L103.919 18.1077L103.039 13.6256V9.10659H108.765V27.5571H103.039V27.5623ZM122.291 27.5623L115.801 17.997L122.253 9.11187H128.78L120.992 19.0991L121.182 16.7051L129.162 27.5623H122.291ZM112.88 27.5623V0H118.722V27.5623H112.88ZM139.337 27.7943C137.629 27.7943 136.118 27.4516 134.793 26.7714C133.494 26.0648 132.476 25.0998 131.739 23.887C131.002 22.6478 130.631 21.2294 130.631 19.6369V8.93258H136.473V19.5631C136.473 20.1959 136.574 20.739 136.781 21.1977C137.009 21.6512 137.343 22.0098 137.772 22.2629C138.207 22.516 138.727 22.6426 139.337 22.6426C140.201 22.6426 140.89 22.3789 141.399 21.8463C141.908 21.2874 142.162 20.5281 142.162 19.5684V8.93785H148.005V19.6053C148.005 21.2241 147.634 22.6531 146.897 23.8976C146.16 25.1104 145.142 26.0753 143.843 26.7819C142.544 27.4674 141.044 27.8049 139.337 27.8049V27.7943ZM77.9341 12.0015V7.06591H87.9761V12.0015H77.9341Z" fill="#E5E7EB"/>
<path d="M14.1616 28C12.1522 28 10.2806 27.6573 8.55212 26.9771C6.84487 26.2705 5.34441 25.2791 4.04542 24.0136C2.77294 22.748 1.78146 21.2821 1.06569 19.6106C0.355226 17.9126 -0.00531006 16.0934 -0.00531006 14.1424C-0.00531006 12.1914 0.349924 10.3827 1.06569 8.71114C1.77616 7.01321 2.77294 5.5473 4.04542 4.30812C5.3179 3.06895 6.80776 2.10398 8.5097 1.42375C10.2382 0.717163 12.1098 0.358595 14.1192 0.358595C16.2559 0.358595 18.154 0.701344 19.8083 1.38157C21.489 2.06707 22.9523 3.0004 24.1983 4.19212L20.19 8.21547C19.4795 7.45615 18.61 6.86029 17.592 6.43317C16.6005 6.00078 15.4394 5.78986 14.1192 5.78986C12.9475 5.78986 11.8659 5.99023 10.8744 6.39626C9.90943 6.77592 9.06641 7.33487 8.35594 8.06782C7.66668 8.80078 7.12058 9.68666 6.71232 10.7254C6.33058 11.7642 6.13971 12.9032 6.13971 14.1424C6.13971 15.3816 6.33058 16.5575 6.71232 17.5963C7.12058 18.6351 7.66668 19.5209 8.35594 20.2539C9.06641 20.9868 9.90943 21.5563 10.8744 21.9624C11.8659 22.3684 12.9475 22.5688 14.1192 22.5688C15.4924 22.5688 16.6907 22.3526 17.7087 21.9255C18.7267 21.4931 19.6068 20.9025 20.3438 20.1432L24.3892 24.1665C23.0902 25.3582 21.6003 26.2916 19.9249 26.9771C18.2707 27.6625 16.3514 28 14.1616 28ZM34.463 27.9631C32.7557 27.9631 31.2288 27.5465 29.8821 26.7081C28.5566 25.875 27.5015 24.736 26.7115 23.2912C25.948 21.8464 25.5662 20.2012 25.5662 18.3556C25.5662 16.51 25.948 14.8648 26.7115 13.42C27.5015 11.9752 28.5566 10.8362 29.8821 10.003C31.2288 9.16989 32.7557 8.74805 34.463 8.74805C35.709 8.74805 36.8277 8.99061 37.8245 9.47046C38.8424 9.95031 39.6695 10.62 40.3058 11.4848C40.942 12.3179 41.2973 13.2829 41.3768 14.3691V22.342C41.3026 23.4283 40.942 24.4038 40.3058 25.2633C39.6961 26.0964 38.8796 26.7556 37.8616 27.2354C36.8436 27.7153 35.709 27.9578 34.463 27.9578V27.9631ZM35.6453 22.727C36.8913 22.727 37.8987 22.3209 38.6622 21.5141C39.4257 20.681 39.8074 19.6264 39.8074 18.3609C39.8074 17.5013 39.6271 16.742 39.2719 16.0829C38.9432 15.4238 38.4554 14.9175 37.8192 14.5642C37.2094 14.1846 36.4937 13.9948 35.6824 13.9948C34.8712 13.9948 34.1449 14.1846 33.5086 14.5642C32.8989 14.9175 32.4005 15.4238 32.0188 16.0829C31.6635 16.742 31.4833 17.5013 31.4833 18.3609C31.4833 19.2204 31.6635 19.9428 32.0188 20.6019C32.374 21.261 32.8724 21.7778 33.5086 22.1575C34.1449 22.5371 34.8553 22.727 35.6453 22.727ZM39.5741 27.5835V22.6109L40.4542 18.1288L39.5741 13.6467V9.12771H45.3003V27.5782H39.5741V27.5835ZM49.4146 27.5835V9.13298H55.2574V27.5835H49.4146ZM55.2574 17.4486L52.8132 15.5503C53.2957 13.3989 54.1122 11.7273 55.2574 10.5409C56.4027 9.34918 57.9933 8.75859 60.0292 8.75859C60.92 8.75859 61.6941 8.89569 62.3568 9.17517C63.0461 9.42827 63.6399 9.8343 64.1489 10.388L60.6761 14.7541C60.4216 14.4746 60.1035 14.2584 59.7217 14.1108C59.34 13.9631 58.9052 13.884 58.4227 13.884C57.4578 13.884 56.6784 14.1899 56.0951 14.7963C55.5331 15.3763 55.2574 16.2622 55.2574 17.4539V17.4486ZM73.088 27.9631C71.3331 27.9631 69.769 27.5465 68.3905 26.7081C67.0438 25.875 65.9728 24.736 65.1828 23.2912C64.4193 21.8464 64.0375 20.2012 64.0375 18.3556C64.0375 16.51 64.4193 14.8648 65.1828 13.42C65.9728 11.9752 67.0385 10.8362 68.3905 10.003C69.7637 9.16989 71.3278 8.74805 73.088 8.74805C74.3605 8.74805 75.5058 8.99061 76.5237 9.47046C77.5682 9.95031 78.4219 10.62 79.0793 11.4848C79.7686 12.3179 80.1503 13.2829 80.2245 14.3691V22.1522C80.1503 23.2384 79.7792 24.2298 79.1164 25.1157C78.4537 25.9752 77.6 26.6712 76.5609 27.2038C75.5164 27.71 74.3605 27.9631 73.088 27.9631ZM74.1166 22.727C74.9543 22.727 75.6807 22.5477 76.2905 22.1944C76.9002 21.8147 77.3827 21.298 77.7432 20.6388C78.1037 19.9797 78.2787 19.2204 78.2787 18.3609C78.2787 17.5013 78.0984 16.7526 77.7432 16.1198C77.4145 15.4607 76.9267 14.9439 76.2905 14.5642C75.6807 14.1846 74.965 13.9948 74.1537 13.9948C73.3425 13.9948 72.6162 14.1846 71.9799 14.5642C71.3702 14.9439 70.8718 15.4607 70.4901 16.1198C70.1348 16.7789 69.9546 17.5224 69.9546 18.3609C69.9546 19.1993 70.1348 19.9428 70.4901 20.6019C70.8453 21.261 71.3437 21.7778 71.9799 22.1575C72.6162 22.5371 73.3266 22.727 74.1166 22.727ZM83.7769 27.5835H78.0507V22.6109L78.9308 18.1288L77.9394 13.6467V0.0211182H83.7822V27.5835H83.7769Z" fill="#E5E7EB"/>
</g>
<defs>
<clipPath id="clip0_585_22">
<rect width="148" height="28" fill="white"/>
</clipPath>
</defs>
</svg>
