<svg width="39" height="35" viewBox="0 0 39 35" fill="none" xmlns="http://www.w3.org/2000/svg">
<path d="M36.022 3.85L33.5653 2.82333V19.3783L38.0203 8.635C38.772 6.765 37.9103 4.62 36.022 3.85ZM0.271976 10.6333L9.36531 32.5417C9.63307 33.2082 10.0898 33.782 10.6794 34.1924C11.2689 34.6028 11.9656 34.832 12.6836 34.8517C13.1603 34.8517 13.6553 34.76 14.132 34.5583L27.6436 28.9667C29.0186 28.3983 29.862 27.0417 29.8986 25.685C29.917 25.2083 29.8253 24.6767 29.6603 24.2L20.4936 2.29167C20.2354 1.62013 19.7805 1.04214 19.1885 0.633277C18.5964 0.224415 17.8948 0.00370351 17.1753 0C16.6986 0 16.222 0.11 15.7636 0.275L2.27031 5.86667C1.37337 6.23397 0.659014 6.94242 0.284282 7.83628C-0.0904492 8.73013 -0.0948758 9.73622 0.271976 10.6333ZM29.8803 3.66667C29.8803 2.69421 29.494 1.76157 28.8064 1.07394C28.1187 0.386308 27.1861 0 26.2136 0H23.5553L29.8803 15.29" fill="#1E293B"/>
</svg>
