<svg width="17" height="27" viewBox="0 0 17 27" fill="none" xmlns="http://www.w3.org/2000/svg">
<path d="M16.2828 11.9019L4.16005 0.661161C3.93399 0.451548 3.66561 0.285273 3.37025 0.171831C3.07488 0.0583887 2.75831 0 2.43861 0C1.79295 0 1.17373 0.237827 0.717179 0.661161C0.491117 0.870775 0.311795 1.11962 0.189451 1.3935C0.0671069 1.66737 0.0041389 1.96091 0.0041389 2.25735C0.0041389 2.85603 0.260627 3.4302 0.717179 3.85353L11.1428 13.4981L0.717179 23.1426C0.489929 23.3516 0.309557 23.6003 0.186466 23.8742C0.0633742 24.1482 0 24.442 0 24.7388C0 25.0356 0.0633742 25.3294 0.186466 25.6034C0.309557 25.8774 0.489929 26.126 0.717179 26.335C0.942573 26.5457 1.21073 26.713 1.50619 26.8271C1.80164 26.9412 2.11854 27 2.43861 27C2.75868 27 3.07559 26.9412 3.37104 26.8271C3.6665 26.713 3.93465 26.5457 4.16005 26.335L16.2828 15.0943C16.5101 14.8853 16.6904 14.6366 16.8135 14.3627C16.9366 14.0887 17 13.7949 17 13.4981C17 13.2013 16.9366 12.9075 16.8135 12.6335C16.6904 12.3595 16.5101 12.1109 16.2828 11.9019Z" fill="#E5E7EB"/>
</svg>
