<svg width="30" height="30" viewBox="0 0 30 30" fill="none" xmlns="http://www.w3.org/2000/svg">
<path d="M16.0695 22.0695C16.3565 21.7815 16.5 21.425 16.5 21V15C16.5 14.575 16.356 14.219 16.068 13.932C15.78 13.645 15.424 13.501 15 13.5C14.576 13.499 14.22 13.643 13.932 13.932C13.644 14.221 13.5 14.577 13.5 15V21C13.5 21.425 13.644 21.7815 13.932 22.0695C14.22 22.3575 14.576 22.501 15 22.5C15.424 22.499 15.7805 22.3565 16.0695 22.0695ZM16.0695 10.068C16.3565 9.781 16.5 9.425 16.5 9C16.5 8.575 16.356 8.219 16.068 7.932C15.78 7.645 15.424 7.501 15 7.5C14.576 7.499 14.22 7.643 13.932 7.932C13.644 8.221 13.5 8.577 13.5 9C13.5 9.423 13.644 9.7795 13.932 10.0695C14.22 10.3595 14.576 10.503 15 10.5C15.424 10.497 15.7805 10.353 16.0695 10.068ZM15 30C12.925 30 10.975 29.606 9.15 28.818C7.325 28.03 5.7375 26.9615 4.3875 25.6125C3.0375 24.2635 1.969 22.676 1.182 20.85C0.395002 19.024 0.0010019 17.074 1.89873e-06 15C-0.000998101 12.926 0.393002 10.976 1.182 9.15C1.971 7.324 3.0395 5.7365 4.3875 4.3875C5.7355 3.0385 7.323 1.97 9.15 1.182C10.977 0.394 12.927 0 15 0C17.073 0 19.023 0.394 20.85 1.182C22.677 1.97 24.2645 3.0385 25.6125 4.3875C26.9605 5.7365 28.0295 7.324 28.8195 9.15C29.6095 10.976 30.003 12.926 30 15C29.997 17.074 29.603 19.024 28.818 20.85C28.033 22.676 26.9645 24.2635 25.6125 25.6125C24.2605 26.9615 22.673 28.0305 20.85 28.8195C19.027 29.6085 17.077 30.002 15 30ZM15 27C18.35 27 21.1875 25.8375 23.5125 23.5125C25.8375 21.1875 27 18.35 27 15C27 11.65 25.8375 8.8125 23.5125 6.4875C21.1875 4.1625 18.35 3 15 3C11.65 3 8.8125 4.1625 6.4875 6.4875C4.1625 8.8125 3 11.65 3 15C3 18.35 4.1625 21.1875 6.4875 23.5125C8.8125 25.8375 11.65 27 15 27Z" fill="#E5E7EB"/>
</svg>
